#N struct 1197-template float x float y float q array poswave 1197-array-element
array negwave 1197-array-element;
#N struct 1197-array-element float y;
#N canvas 919 360 725 298 10;
#X declare -path sound/;
#X declare -lib iem_tab;
#X obj -84 -60 soundfiler;
#X obj -84 -24 nbx 10 14 -1e+37 1e+37 0 0 empty empty empty 0 -8 0
10 -262144 -1 -1 79372 256;
#X obj -84 15 bang;
#X obj -84 -149 openpanel;
#X msg -84 78 normalize 1;
#X msg 137 53 size 403 45;
#X msg 137 33 bgcolor 12;
#X msg 137 73 wavecolor 5 5 5;
#X obj 137 0 bang;
#X obj 137 -74 bng 15 250 50 0 empty empty empty 17 7 0 10 -262144
-1 -1;
#X obj 469 75 path sound/;
#X obj 100 101 sound_open_button;
#X obj 137 -51 loadbang;
#X msg -84 -94 read -resize -maxsize 8.82e+08 \$1 \$2;
#X obj 280 18 table \$1;
#X obj -84 113 s \$1;
#X obj -40 0 s \$1_nsamples;
#X obj -1 -62 print;
#X obj -84 -123 pack s s;
#X obj -22 -121 symbol \$1;
#X obj 1 -142 loadbang;
#X obj -84 50 del 10;
#X obj 137 -24 del 10;
#X obj 136 101 waveform.mmb \$1;
#X connect 0 0 1 0;
#X connect 1 0 2 0;
#X connect 1 0 16 0;
#X connect 2 0 21 0;
#X connect 2 0 23 0;
#X connect 3 0 18 0;
#X connect 4 0 15 0;
#X connect 5 0 23 0;
#X connect 6 0 23 0;
#X connect 7 0 23 0;
#X connect 8 0 7 0;
#X connect 8 0 5 0;
#X connect 8 0 6 0;
#X connect 9 0 12 0;
#X connect 11 0 3 0;
#X connect 12 0 22 0;
#X connect 13 0 0 0;
#X connect 13 0 17 0;
#X connect 18 0 13 0;
#X connect 19 0 18 1;
#X connect 20 0 19 0;
#X connect 21 0 4 0;
#X connect 22 0 8 0;
#X coords 0 -1 1 1 441 46 2 100 100;
