#N canvas 527 605 692 311 10;
#X floatatom 313 -61 5 0 0 0 - transpo-set -;
#N canvas 326 288 818 705 fft-analysis 0;
#X obj 51 477 *~;
#X obj 18 477 *~;
#X obj 18 499 -~;
#X obj 167 475 *~;
#X obj 136 475 *~;
#X obj 136 497 +~;
#X obj 109 193 *~;
#X obj 78 193 *~;
#X obj 50 193 *~;
#X obj 19 193 *~;
#X obj 19 218 +~;
#X obj 127 379 *~;
#X obj 20 622 *~;
#X obj 238 430 rfft~;
#X obj 108 161 rfft~;
#X obj 19 564 rifft~;
#X obj 21 646 outlet~;
#X obj 97 379 *~;
#X obj 97 401 +~;
#X obj 124 218 -~;
#X obj 18 431 *~;
#X obj 51 432 *~;
#X obj 426 644 block~;
#X obj 19 349 +~ 1e-15;
#X obj 19 598 *~;
#X obj 52 598 tabreceive~ \$1-hann;
#X obj 127 643 expr 2/(3*$f1);
#X obj 591 543 loadbang;
#X msg 426 619 set \$1 4;
#X obj 97 425 q8_rsqrt~;
#N canvas 837 111 1006 799 read-windows 1;
#X obj 18 693 *~;
#X obj 166 303 f;
#X obj 102 139 /;
#X obj 195 695 *~;
#X obj 166 252 bang~;
#X obj 17 551 line~;
#X obj 102 164 * 1000;
#X obj 208 305 +;
#X obj 288 275 *;
#X obj 188 371 / 1000;
#X obj 166 394 *;
#X text 198 394 reading location (samples);
#X obj 51 597 / 4;
#X obj 288 245 * 0.01;
#X floatatom 340 498 7 0 0 0 - - -;
#X obj 340 474 *;
#X obj 499 387 * 0.01;
#X obj 501 408 + 69;
#X obj 502 429 mtof;
#X obj 502 451 / 440;
#X obj 375 474 t b f;
#X obj 19 719 outlet~;
#X obj 195 720 outlet~;
#X obj 218 664 tabreceive~ \$1-hann;
#X msg 803 409 0;
#X msg 768 532 set \$1;
#X text 411 498 stretched window size (samples);
#X msg 877 533 set \$1;
#X msg 826 278 set \$1;
#X obj 808 140 t b f;
#X obj 826 257 f;
#X obj 754 171 int;
#X obj 754 203 sel 0;
#X msg 813 174 1;
#X msg 813 197 0;
#X obj 754 228 del 300;
#X obj 188 347 r \$1-insamprate;
#X floatatom 111 187 5 0 0 0 - - -;
#X obj 102 115 t f b;
#X obj 142 139 samplerate~;
#X obj 102 208 / 4;
#X obj 203 420 / 2;
#X obj 166 420 -;
#X text 239 417 back up 1/2 window;
#X obj 16 597 -~;
#X text 43 6 Read two windows out of the recorded sample \, one 1/4
ahead of the other. The mid point of the front window is specified
by "location". If "speed" is nonzero \, "location" automatically precesses.
;
#X obj 528 720 * -0.5;
#X text 81 601 "back" window 1/4 cycle behind "front" one;
#X text 137 205 computation period (msec) for overlap of 4;
#X text 164 186 msec in a window;
#X obj 528 666 /;
#X obj 528 691 * 1000;
#X obj 528 642 t f b;
#X obj 568 666 samplerate~;
#X obj 528 619 f;
#X text 326 275 loop to precess the location according;
#X text 325 291 to the "speed" parameter.;
#X text 611 31 if location changes \, update number box;
#X text 610 50 in main window via "location-set" \, but;
#X text 613 69 taking care to limit frequency of updates.;
#X text 756 462 reflect control changes;
#X text 756 479 in main window.;
#X text 754 334 setting location by hand;
#X text 752 352 sets speed to zero.;
#X text 760 623 misc controls;
#X text 496 527 "rewind" control takes us;
#X text 499 545 to a location depending on;
#X text 499 564 stretched window size.;
#X obj 17 469 f;
#X obj 17 496 pack;
#X obj 17 440 b;
#X msg 17 523 0 \, \$1 \$2;
#X obj 17 637 tabread4~ \$1;
#X obj 194 637 tabread4~ \$1;
#X obj 102 91 r \$1_window-size;
#X obj 496 365 r \$1_transpo;
#X obj 340 448 r \$1_window-size;
#X obj 187 276 r \$1_location;
#X obj 288 221 r \$1_speed;
#X obj 768 508 r \$1_speed;
#X obj 768 557 s \$1_speed-set;
#X obj 877 507 r \$1_transpo;
#X obj 877 558 s \$1_transpo-set;
#X obj 803 375 r \$1_location;
#X obj 803 432 s \$1_speed;
#X obj 826 302 s \$1_location-set;
#X obj 808 94 r \$1_location;
#X obj 817 116 r \$1_see-loc;
#X obj 730 655 r \$1_no-detune;
#X obj 845 625 r \$1_auto;
#X obj 528 586 r \$1_rewind;
#X obj 528 746 s \$1_location;
#X obj 456 743 nbx 5 14 -1e+37 1e+37 0 0 empty empty empty 0 -8 0 10
-262144 -1 -1 -23.22 256;
#X obj 243 309 s \$1_see-loc;
#X obj 910 678 s \$1_speed;
#X obj 845 659 bng 15 250 50 0 empty empty empty 17 7 0 10 -262144
-1 -1;
#X obj 699 551 nbx 5 14 -1e+37 1e+37 0 0 empty empty empty 0 -8 0 10
-262144 -1 -1 100 256;
#X obj 888 649 f;
#X msg 730 681 0;
#X obj 730 706 s \$1_transpo;
#X obj 845 705 s \$1_rewind;
#X connect 0 0 21 0;
#X connect 1 0 7 0;
#X connect 1 0 10 0;
#X connect 2 0 6 0;
#X connect 3 0 22 0;
#X connect 4 0 1 0;
#X connect 5 0 44 0;
#X connect 5 0 73 0;
#X connect 6 0 37 0;
#X connect 6 0 40 0;
#X connect 7 0 1 1;
#X connect 7 0 93 0;
#X connect 8 0 7 1;
#X connect 9 0 10 1;
#X connect 10 0 42 0;
#X connect 12 0 44 1;
#X connect 13 0 8 0;
#X connect 14 0 12 0;
#X connect 14 0 41 0;
#X connect 14 0 54 1;
#X connect 14 0 68 1;
#X connect 15 0 14 0;
#X connect 16 0 17 0;
#X connect 17 0 18 0;
#X connect 18 0 19 0;
#X connect 19 0 20 0;
#X connect 20 0 15 0;
#X connect 20 1 15 1;
#X connect 23 0 3 1;
#X connect 23 0 0 1;
#X connect 24 0 84 0;
#X connect 25 0 80 0;
#X connect 27 0 82 0;
#X connect 28 0 85 0;
#X connect 29 0 31 0;
#X connect 29 1 30 1;
#X connect 30 0 28 0;
#X connect 31 0 32 0;
#X connect 32 0 33 0;
#X connect 32 0 35 0;
#X connect 33 0 31 1;
#X connect 34 0 31 1;
#X connect 35 0 34 0;
#X connect 35 0 30 0;
#X connect 36 0 9 0;
#X connect 38 0 2 0;
#X connect 38 1 39 0;
#X connect 39 0 2 1;
#X connect 40 0 8 1;
#X connect 40 0 69 1;
#X connect 41 0 42 1;
#X connect 42 0 70 0;
#X connect 42 0 72 1;
#X connect 42 0 73 1;
#X connect 44 0 72 0;
#X connect 46 0 91 0;
#X connect 46 0 92 0;
#X connect 50 0 51 0;
#X connect 51 0 46 0;
#X connect 52 0 50 0;
#X connect 52 1 53 0;
#X connect 53 0 50 1;
#X connect 54 0 52 0;
#X connect 68 0 69 0;
#X connect 69 0 71 0;
#X connect 70 0 68 0;
#X connect 71 0 5 0;
#X connect 72 0 0 0;
#X connect 73 0 3 0;
#X connect 74 0 38 0;
#X connect 75 0 16 0;
#X connect 76 0 15 0;
#X connect 77 0 1 1;
#X connect 78 0 13 0;
#X connect 79 0 25 0;
#X connect 79 0 96 0;
#X connect 81 0 27 0;
#X connect 86 0 29 0;
#X connect 87 0 29 0;
#X connect 88 0 98 0;
#X connect 89 0 95 0;
#X connect 89 0 97 0;
#X connect 90 0 54 0;
#X connect 95 0 100 0;
#X connect 97 0 94 0;
#X connect 98 0 99 0;
#X restore 109 133 pd read-windows;
#X text 272 5 recall previous output amplitude. Its phase will be added
to the phase difference we measure from two windows in the the recorded
sound.;
#X obj 121 69 *~;
#X obj 89 69 *~;
#X obj 89 91 +~;
#X obj 159 94 q8_rsqrt~;
#X obj 159 71 +~ 1e-20;
#X obj 73 119 *~;
#X obj 19 118 *~;
#X obj 29 245 lrshift~ 1;
#X obj 24 269 lrshift~ -1;
#X obj 141 245 lrshift~ 1;
#X obj 133 269 lrshift~ -1;
#X obj 35 300 *~;
#X obj 159 312 *~;
#X obj 19 325 +~;
#X obj 125 331 +~;
#X text 247 66 divide by the magnitude to make a unit-magnitude complex
amplitude (phase only). The 1e-20 is to prevent overflows. q8_rsqrt~
is reciprocal square root.;
#X text 247 165 Take FT of the window in back. Multiply its conjugate
by the normalized previous output. The result has the magnitude of
the input sound and phase (previous output phase) minus (back window
phase).;
#X text 249 370 Normalize again \, this time taking care to salt each
channel with 1e-15 so that we get a unit complex number even if everything
was zero heretofore.;
#X text 297 417 Now take the FT of the forward window and multiply
it by the unit complex number from above. The magnitude will be that
of the forward window and the phase will be the previous output phase
plus the phase difference between the two analysis windows -- except
that if "lock" is on \, they will be modified to agree progressively
better with the inter-channel phase relationships of the input.;
#X text 249 242 If "lock" is on \, encourage neighboring channels to
stay in phase by adding the two neighboring complex amplitudes. The
result will tend toward the channel with the strongest amplitude. If
the phase relationships between channels in the output and those in
the input are in parallel \, then neighboring channels of the quotient
will all have the same phase and this will not change any phases. (lrshift
shifts the signal to the left or right depending on its argument.)
;
#X text 387 560 'set' message to block;
#X text 390 577 allows variable size;
#X text 259 126 Read two windows \, one 1/4 length behind the other
\, of the input sound \, with Hann window function (see inside).;
#X obj 136 567 tabsend~ \$1_prev_real;
#X obj 137 543 tabsend~ \$1_prev_imag;
#X obj 426 595 r \$1_window-size;
#X obj 73 29 tabreceive~ \$1_prev_imag;
#X obj 20 8 tabreceive~ \$1_prev_real;
#X obj 127 622 r \$1_window-size;
#X obj 181 290 r \$1_lock;
#X obj 591 517 bng 15 250 50 0 empty empty empty 17 7 0 10 -262144
-1 -1;
#X msg 591 617 \; pd dsp 1 \; \$1_window-size 2048 \; \$1_transpo 0
\; \$1_rewind bang;
#X obj 591 571 symbol \$1;
#X connect 0 0 2 1;
#X connect 1 0 2 0;
#X connect 2 0 15 0;
#X connect 2 0 55 0;
#X connect 3 0 5 1;
#X connect 4 0 5 0;
#X connect 5 0 15 1;
#X connect 5 0 56 0;
#X connect 6 0 19 1;
#X connect 7 0 19 0;
#X connect 8 0 10 1;
#X connect 9 0 10 0;
#X connect 10 0 40 0;
#X connect 10 0 39 0;
#X connect 10 0 45 0;
#X connect 11 0 18 1;
#X connect 12 0 16 0;
#X connect 13 0 1 1;
#X connect 13 0 3 1;
#X connect 13 1 0 1;
#X connect 13 1 4 1;
#X connect 14 0 9 1;
#X connect 14 0 7 1;
#X connect 14 1 6 1;
#X connect 14 1 8 1;
#X connect 15 0 24 0;
#X connect 17 0 18 0;
#X connect 18 0 29 0;
#X connect 19 0 41 0;
#X connect 19 0 42 0;
#X connect 19 0 46 0;
#X connect 20 0 1 0;
#X connect 20 0 4 0;
#X connect 21 0 0 0;
#X connect 21 0 3 0;
#X connect 23 0 17 1;
#X connect 23 0 17 0;
#X connect 23 0 20 0;
#X connect 24 0 12 0;
#X connect 25 0 24 1;
#X connect 26 0 12 1;
#X connect 27 0 64 0;
#X connect 28 0 22 0;
#X connect 29 0 20 1;
#X connect 29 0 21 1;
#X connect 30 0 14 0;
#X connect 30 1 13 0;
#X connect 32 0 34 1;
#X connect 33 0 34 0;
#X connect 34 0 36 0;
#X connect 35 0 37 1;
#X connect 35 0 38 1;
#X connect 36 0 35 0;
#X connect 37 0 8 0;
#X connect 37 0 7 0;
#X connect 38 0 9 0;
#X connect 38 0 6 0;
#X connect 39 0 43 0;
#X connect 40 0 43 0;
#X connect 41 0 44 0;
#X connect 42 0 44 0;
#X connect 43 0 45 1;
#X connect 44 0 46 1;
#X connect 45 0 23 0;
#X connect 46 0 11 0;
#X connect 46 0 11 1;
#X connect 46 0 21 0;
#X connect 57 0 28 0;
#X connect 58 0 32 1;
#X connect 58 0 32 0;
#X connect 58 0 37 0;
#X connect 59 0 33 1;
#X connect 59 0 33 0;
#X connect 59 0 38 0;
#X connect 60 0 26 0;
#X connect 61 0 43 1;
#X connect 61 0 44 1;
#X connect 62 0 27 0;
#X connect 64 0 63 0;
#X restore -126 104 pd fft-analysis;
#N canvas 254 92 647 768 phase-tables 0;
#N canvas 0 0 450 300 (subpatch) 0;
#X array \$1_prev_imag 4096 float 0;
#X coords 0 1000 4096 -1000 400 300 1 0 0;
#X restore 169 326 graph;
#N canvas 0 0 450 300 (subpatch) 0;
#X array \$1_prev_real 4096 float 0;
#X coords 0 500 4096 -500 400 300 1 0 0;
#X restore 170 17 graph;
#X restore 259 128 pd phase-tables;
#X text -26 -88 hundredths;
#X text 312 -82 in cents;
#X text 222 -18 normal;
#N canvas 1 120 565 454 hann-window 0;
#N canvas 0 0 450 300 (subpatch) 0;
#X array \$1-hann 2048 float 0;
#X coords 0 1 2047 0 300 100 1;
#X restore 82 311 graph;
#X obj 378 165 osc~;
#X obj 378 190 *~ -0.5;
#X obj 378 214 +~ 0.5;
#X obj 331 247 tabwrite~ \$1-hann;
#X obj 38 173 /;
#X obj 127 142 samplerate~;
#X obj 177 204 swap;
#X obj 177 228 /;
#X obj 49 201 * 1000;
#X obj 38 115 t f b f;
#X msg 173 92 resize \$1;
#X obj 173 116 s \$1-hann;
#X msg 382 130 0;
#X obj 330 131 t f b;
#X text 15 8 calculate Hann window table (variable window size) and
constants window-hz (fundamental frequency of analysis) \, window-sec
and window-msec (analysis window size in seconds and msec).;
#X obj 37 88 r \$1_window-size;
#X obj 177 252 s \$1_window-hz;
#X obj 38 251 s \$1_window-sec;
#X obj 49 228 s \$1_window-msec;
#X obj 331 105 r \$1_window-hz;
#X connect 1 0 2 0;
#X connect 2 0 3 0;
#X connect 3 0 4 0;
#X connect 5 0 9 0;
#X connect 5 0 18 0;
#X connect 6 0 5 1;
#X connect 6 0 7 1;
#X connect 7 0 8 0;
#X connect 7 1 8 1;
#X connect 8 0 17 0;
#X connect 9 0 19 0;
#X connect 10 0 5 0;
#X connect 10 0 7 0;
#X connect 10 1 6 0;
#X connect 10 2 11 0;
#X connect 11 0 12 0;
#X connect 13 0 1 1;
#X connect 14 0 1 0;
#X connect 14 1 4 0;
#X connect 14 1 13 0;
#X connect 16 0 10 0;
#X connect 20 0 14 0;
#X restore 259 152 pd hann-window;
#X obj 312 11 tgl 15 1 empty empty empty 0 -6 0 8 -262144 -1 -1 1 1
;
#X obj 81 10 bng 15 250 50 0 empty empty empty 0 -6 0 8 -262144 -1
-1;
#X msg 155 -64 200;
#X msg 175 -29 100;
#X msg 188 3 20;
#X text 219 -42 contract;
#X text 223 3 expand;
#X text 313 -99 detune;
#X text -126 -46 location;
#X text -129 -30 (stops;
#X text -124 -15 motion);
#X text -25 -104 motion in;
#X floatatom 426 43 5 0 0 0 - #1_window-size -;
#X msg 426 -69 512;
#X msg 426 -47 1024;
#X msg 426 -25 2048;
#X msg 426 -3 4096;
#X text 426 -102 window size \,;
#X text 426 -87 samples;
#X text 467 -70 <- set;
#X text 479 43 (check);
#X obj -126 134 outlet~;
#X obj -126 32 s \$1_location;
#X obj -14 31 s \$1_speed;
#X obj 81 32 s \$1_rewind;
#X obj 164 31 s \$1_auto;
#X obj 312 31 s \$1_lock;
#X obj 313 -38 s \$1_transpo;
#X obj 426 19 s \$1_window-size;
#X obj 142 125 samplerate~;
#X obj 142 149 s \$1-insamprate;
#X obj 142 99 loadbang;
#X obj -14 10 nbx 5 14 -1e+37 1e+37 0 0 empty \$1_speed-set empty 0
-8 0 10 -262144 -1 -1 100 256;
#X obj -126 12 nbx 5 14 0 172121 0 0 empty \$1_location-set empty 0
-8 0 10 -262144 -1 -1 65944.5 256;
#X msg 130 -27 50;
#X msg 11 -58 200;
#X msg 45 -50 100;
#X msg 58 -18 20;
#X msg -23 -48 50;
#X connect 0 0 34 0;
#X connect 1 0 28 0;
#X connect 7 0 33 0;
#X connect 8 0 31 0;
#X connect 9 0 32 0;
#X connect 10 0 32 0;
#X connect 11 0 32 0;
#X connect 20 0 35 0;
#X connect 21 0 35 0;
#X connect 22 0 35 0;
#X connect 23 0 35 0;
#X connect 36 0 37 0;
#X connect 38 0 36 0;
#X connect 39 0 30 0;
#X connect 40 0 29 0;
#X connect 41 0 32 0;
#X connect 42 0 39 0;
#X connect 43 0 39 0;
#X connect 44 0 39 0;
#X connect 45 0 39 0;
