#N canvas 959 357 450 300 10;
#X obj 70 41 inlet~;
#X obj 173 103 *~;
#X obj 141 103 *~;
#X obj 141 125 +~;
#X obj 211 128 q8_rsqrt~;
#X obj 211 105 +~ 1e-20;
#X obj 125 153 *~;
#X obj 71 152 *~;
#X obj 126 40 inlet~;
#X obj 71 194 outlet~;
#X obj 126 193 outlet~;
#X connect 0 0 2 0;
#X connect 0 0 2 1;
#X connect 0 0 7 0;
#X connect 1 0 3 1;
#X connect 2 0 3 0;
#X connect 3 0 5 0;
#X connect 4 0 6 1;
#X connect 4 0 7 1;
#X connect 5 0 4 0;
#X connect 6 0 10 0;
#X connect 7 0 9 0;
#X connect 8 0 1 0;
#X connect 8 0 1 1;
#X connect 8 0 6 0;
