#N canvas 1127 231 792 360 10;
#N canvas 495 265 643 503 phase-vocoder 1;
#X obj 115 27 inlet~;
#X obj -140 23 tabreceive~ prev-real;
#X obj -87 44 tabreceive~ prev-imag;
#X obj 234 234 r window-size;
#X obj 148 59 tabreceive~ \$0-hann;
#X obj -141 177 *~;
#X obj -91 427 *~;
#X obj -90 451 outlet~;
#X obj 5 389 r window-size;
#X obj 5 410 expr 2/(3*$f1);
#X obj -88 176 *~;
#X obj -139 87 phase_only~;
#X obj 96 140 phase_only~;
#X text -90 248 cos( angle2-angle1);
#X obj -51 181 *~;
#X obj 2 180 *~;
#X obj -116 247 +~;
#X obj -31 214 -~;
#X text -6 213 sin( angle2-angle1);
#X obj 294 88 tabsend~ prev-imag;
#X obj 274 130 tabsend~ prev-real;
#X obj 180 140 mag_only~;
#X obj -111 319 *~;
#X obj -73 318 *~;
#X obj -94 352 rifft~;
#X obj 53 303 snaps~;
#X msg 234 258 set \$1 4 1;
#X obj 234 283 block~;
#X obj 115 59 *~;
#X obj 116 89 fft~;
#X connect 0 0 28 0;
#X connect 1 0 11 0;
#X connect 2 0 11 1;
#X connect 3 0 26 0;
#X connect 4 0 28 1;
#X connect 5 0 16 0;
#X connect 6 0 7 0;
#X connect 8 0 9 0;
#X connect 9 0 6 1;
#X connect 10 0 16 1;
#X connect 11 0 5 0;
#X connect 11 0 14 0;
#X connect 11 1 10 0;
#X connect 11 1 15 0;
#X connect 12 0 5 1;
#X connect 12 0 15 1;
#X connect 12 1 10 1;
#X connect 12 1 14 1;
#X connect 14 0 17 0;
#X connect 15 0 17 1;
#X connect 16 0 22 1;
#X connect 17 0 23 1;
#X connect 21 0 22 0;
#X connect 21 0 23 0;
#X connect 22 0 24 0;
#X connect 23 0 24 1;
#X connect 24 0 6 0;
#X connect 26 0 27 0;
#X connect 28 0 29 0;
#X connect 29 0 12 0;
#X connect 29 0 21 0;
#X connect 29 0 20 0;
#X connect 29 1 12 1;
#X connect 29 1 21 1;
#X connect 29 1 19 0;
#X restore 260 87 pd phase-vocoder;
#N canvas 256 87 647 768 phase-tables 0;
#N canvas 0 0 450 300 (subpatch) 0;
#X array prev-imag 4096 float 0;
#X coords 0 1000 4096 -1000 400 300 1;
#X restore 169 326 graph;
#N canvas 0 0 450 300 (subpatch) 0;
#X array prev-real 4096 float 0;
#X coords 0 500 4096 -500 400 300 1;
#X restore 170 17 graph;
#X restore 444 31 pd phase-tables;
#N canvas 1 120 565 454 hann-window 0;
#N canvas 0 0 450 300 (subpatch) 0;
#X array \$0-hann 256 float 0;
#X coords 0 1 255 0 300 100 1;
#X restore 82 311 graph;
#X obj 378 165 osc~;
#X obj 378 190 *~ -0.5;
#X obj 378 214 +~ 0.5;
#X obj 331 247 tabwrite~ \$0-hann;
#X obj 37 88 r window-size;
#X obj 38 173 /;
#X obj 127 142 samplerate~;
#X obj 38 251 s window-sec;
#X obj 177 204 swap;
#X obj 177 228 /;
#X obj 177 252 s window-hz;
#X obj 49 201 * 1000;
#X obj 49 228 s window-msec;
#X obj 38 115 t f b f;
#X msg 173 92 resize \$1;
#X obj 173 116 s \$0-hann;
#X obj 330 105 r window-hz;
#X msg 382 130 0;
#X obj 330 131 t f b;
#X text 15 8 calculate Hann window table (variable window size) and
constants window-hz (fundamental frequency of analysis) \, window-sec
and window-msec (analysis window size in seconds and msec).;
#X connect 1 0 2 0;
#X connect 2 0 3 0;
#X connect 3 0 4 0;
#X connect 5 0 14 0;
#X connect 6 0 8 0;
#X connect 6 0 12 0;
#X connect 7 0 6 1;
#X connect 7 0 9 1;
#X connect 9 0 10 0;
#X connect 9 1 10 1;
#X connect 10 0 11 0;
#X connect 12 0 13 0;
#X connect 14 0 6 0;
#X connect 14 0 9 0;
#X connect 14 1 7 0;
#X connect 14 2 15 0;
#X connect 15 0 16 0;
#X connect 17 0 19 0;
#X connect 18 0 1 1;
#X connect 19 0 1 0;
#X connect 19 1 4 0;
#X connect 19 1 18 0;
#X restore 444 55 pd hann-window;
#X obj 283 -75 openpanel;
#X obj 284 -95 bng 15 250 50 0 empty empty empty 17 7 0 10 -262144
-1 -1;
#X obj 254 -38 symbol;
#X obj 256 127 output~;
#X msg 253 -7 open \$1 \, start;
#X obj 256 -59 bng 15 250 50 0 empty empty empty 17 7 0 10 -262144
-1 -1;
#X obj 342 14 print;
#X obj 257 50 readsf~ 2 1e+06;
#X obj 444 -31 s window-size;
#X obj 442 -69 expr pow(2 \, $f1);
#X obj 442 -48 nbx 5 14 -1e+37 1e+37 0 0 empty empty empty 0 -8 0 10
-262144 -1 -1 256 256;
#X obj 444 -93 nbx 5 14 -1e+37 1e+37 0 0 empty empty empty 0 -8 0 10
-262144 -1 -1 8 256;
#X obj 114 86 *~;
#X obj 133 6 vsl 30 64 0 10 0 0 empty empty empty 0 -9 0 10 -262144
-1 -1 3331 1;
#X msg 26 -108 set \$1;
#X msg 25 -89 /home/miles/Música/Gould Menuhin/1.wav;
#X connect 0 0 6 0;
#X connect 0 0 6 1;
#X connect 3 0 5 1;
#X connect 4 0 3 0;
#X connect 5 0 7 0;
#X connect 5 0 17 0;
#X connect 7 0 9 0;
#X connect 7 0 10 0;
#X connect 8 0 5 0;
#X connect 10 0 15 0;
#X connect 10 2 5 0;
#X connect 12 0 13 0;
#X connect 13 0 11 0;
#X connect 14 0 12 0;
#X connect 15 0 0 0;
#X connect 16 0 15 1;
#X connect 17 0 18 0;
